<svg xmlns="http://www.w3.org/2000/svg" xmlns:xlink="http://www.w3.org/1999/xlink" width="2000" zoomAndPan="magnify" viewBox="0 0 1500 1499.999933" height="2000" preserveAspectRatio="xMidYMid meet" version="1.0"><defs><g/><clipPath id="f83232a217"><path d="M 867.445312 -392.160156 L 2156.734375 360.960938 L 1012.34375 2320.070312 L -276.945312 1566.949219 Z M 867.445312 -392.160156 " clip-rule="nonzero"/></clipPath><clipPath id="d5df0ecaf1"><path d="M 1512.089844 -15.601562 L 1014.035156 2317.175781 L -275.253906 1564.054688 Z M 1512.089844 -15.601562 " clip-rule="nonzero"/></clipPath><clipPath id="281fcf3911"><path d="M 0 0 L 1500 0 L 1500 1500 L 0 1500 Z M 0 0 " clip-rule="nonzero"/></clipPath><clipPath id="f6748285f6"><path d="M 867.445312 -392.160156 L 2156.734375 360.960938 L 1012.34375 2320.070312 L -276.945312 1566.949219 Z M 867.445312 -392.160156 " clip-rule="nonzero"/></clipPath><clipPath id="8ba5664d94"><path d="M 1512.089844 -15.601562 L 1014.035156 2317.175781 L -275.253906 1564.054688 Z M 1512.089844 -15.601562 " clip-rule="nonzero"/></clipPath><clipPath id="3f01f07d0e"><rect x="0" width="1500" y="0" height="1500"/></clipPath><clipPath id="df0f3622f2"><rect x="0" width="1298" y="0" height="772"/></clipPath></defs><rect x="-150" width="1800" fill="#ffffff" y="-149.999993" height="1799.99992" fill-opacity="1"/><rect x="-150" width="1800" fill="#00cfe4" y="-149.999993" height="1799.99992" fill-opacity="1"/><g clip-path="url(#f83232a217)"><g clip-path="url(#d5df0ecaf1)"><g transform="matrix(1, 0, 0, 1, 0, 0.000000000000112861)"><g clip-path="url(#3f01f07d0e)"><g clip-path="url(#281fcf3911)"><g clip-path="url(#f6748285f6)"><g clip-path="url(#8ba5664d94)"><path fill="#0089b4" d="M 867.445312 -392.160156 L 2156.734375 360.960938 L 1015.285156 2315.035156 L -274 1561.914062 Z M 867.445312 -392.160156 " fill-opacity="1" fill-rule="nonzero"/></g></g></g></g></g></g></g><g fill="#000000" fill-opacity="1"><g transform="translate(96.000449, 615.068951)"><g><path d="M 4.84375 -137.59375 L 4.84375 -180.15625 L 157.671875 -180.15625 L 157.671875 -137.59375 L 106.40625 -137.59375 L 106.40625 0 L 56.109375 0 L 56.109375 -137.59375 Z M 4.84375 -137.59375 "/></g></g></g><g fill="#000000" fill-opacity="1"><g transform="translate(255.52962, 615.068951)"><g><path d="M 9.671875 0 L 9.671875 -180.15625 L 149.203125 -180.15625 L 149.203125 -137.59375 L 59.96875 -137.59375 L 59.96875 -110.515625 L 142.3125 -110.515625 L 142.3125 -69.40625 L 59.96875 -69.40625 L 59.96875 -42.5625 L 149.203125 -42.5625 L 149.203125 0 Z M 9.671875 0 "/></g></g></g><g fill="#000000" fill-opacity="1"><g transform="translate(409.01338, 615.068951)"><g><path d="M 4.84375 -137.59375 L 4.84375 -180.15625 L 157.671875 -180.15625 L 157.671875 -137.59375 L 106.40625 -137.59375 L 106.40625 0 L 56.109375 0 L 56.109375 -137.59375 Z M 4.84375 -137.59375 "/></g></g></g><g fill="#000000" fill-opacity="1"><g transform="translate(544.360926, 615.068951)"><g><path d="M 0 0 L 60.453125 -180.15625 L 128.171875 -180.15625 L 189.21875 0 L 132.640625 0 L 124.046875 -29.625 L 63.84375 -29.625 L 55.015625 0 Z M 75.453125 -68.3125 L 112.9375 -68.3125 L 112.453125 -69.890625 C 109.304688 -80.765625 106.238281 -91.519531 103.25 -102.15625 C 100.269531 -112.800781 97.332031 -123.609375 94.4375 -134.578125 C 91.445312 -123.609375 88.421875 -112.800781 85.359375 -102.15625 C 82.296875 -91.519531 79.15625 -80.765625 75.9375 -69.890625 Z M 75.453125 -68.3125 "/></g></g></g><g fill="#000000" fill-opacity="1"><g transform="translate(730.610802, 615.068951)"><g><path d="M 9.671875 0 L 9.671875 -180.15625 L 59.96875 -180.15625 L 59.96875 -103.859375 C 63.84375 -108.859375 67.710938 -113.859375 71.578125 -118.859375 C 75.453125 -123.859375 79.320312 -128.851562 83.1875 -133.84375 L 118.96875 -180.15625 L 177.140625 -180.15625 L 114.265625 -102.78125 L 180.515625 0 L 122.96875 0 L 81.859375 -68.671875 L 59.96875 -41.828125 L 59.96875 0 Z M 9.671875 0 "/></g></g></g><g fill="#000000" fill-opacity="1"><g transform="translate(908.155339, 615.068951)"><g><path d="M 9.671875 0 L 9.671875 -180.15625 L 149.203125 -180.15625 L 149.203125 -137.59375 L 59.96875 -137.59375 L 59.96875 -110.515625 L 142.3125 -110.515625 L 142.3125 -69.40625 L 59.96875 -69.40625 L 59.96875 -42.5625 L 149.203125 -42.5625 L 149.203125 0 Z M 9.671875 0 "/></g></g></g><g fill="#000000" fill-opacity="1"><g transform="translate(1061.639091, 615.068951)"><g><path d="M 9.671875 0 L 9.671875 -180.15625 L 60.9375 -180.15625 L 104.828125 -109.421875 C 106.921875 -106.035156 109.660156 -101.28125 113.046875 -95.15625 C 116.429688 -89.03125 119.898438 -82.742188 123.453125 -76.296875 C 123.210938 -83.546875 123.050781 -90.597656 122.96875 -97.453125 C 122.882812 -104.304688 122.84375 -109.867188 122.84375 -114.140625 L 122.84375 -180.15625 L 173.140625 -180.15625 L 173.140625 0 L 121.875 0 L 80.890625 -65.78125 C 78.304688 -69.882812 75.140625 -75.222656 71.390625 -81.796875 C 67.648438 -88.367188 63.640625 -95.5625 59.359375 -103.375 C 59.679688 -95.238281 59.863281 -87.84375 59.90625 -81.1875 C 59.945312 -74.539062 59.96875 -69.40625 59.96875 -65.78125 L 59.96875 0 Z M 9.671875 0 "/></g></g></g><g fill="#000000" fill-opacity="1"><g transform="translate(1241.48078, 615.068951)"><g><path d="M 4.84375 -137.59375 L 4.84375 -180.15625 L 157.671875 -180.15625 L 157.671875 -137.59375 L 106.40625 -137.59375 L 106.40625 0 L 56.109375 0 L 56.109375 -137.59375 Z M 4.84375 -137.59375 "/></g></g></g><g transform="matrix(1, 0, 0, 1, 101, 486)"><g clip-path="url(#df0f3622f2)"><g fill="#000000" fill-opacity="1"><g transform="translate(0.645613, 617.226444)"><g><path d="M 224.078125 7.453125 C 183.734375 7.453125 148.660156 0.363281 118.859375 -13.8125 C 89.066406 -27.988281 65.945312 -47.957031 49.5 -73.71875 C 33.050781 -99.476562 24.828125 -129.738281 24.828125 -164.5 L 24.828125 -462.4375 L 150.21875 -462.4375 L 150.21875 -175.046875 C 150.21875 -153.734375 157.195312 -136.09375 171.15625 -122.125 C 185.125 -108.15625 202.765625 -101.171875 224.078125 -101.171875 C 245.804688 -101.171875 263.550781 -108.101562 277.3125 -121.96875 C 291.070312 -135.832031 297.953125 -153.523438 297.953125 -175.046875 L 297.953125 -462.4375 L 423.34375 -462.4375 L 423.34375 -164.5 C 423.34375 -129.738281 415.113281 -99.476562 398.65625 -73.71875 C 382.207031 -47.957031 359.085938 -27.988281 329.296875 -13.8125 C 299.503906 0.363281 264.429688 7.453125 224.078125 7.453125 Z M 224.078125 7.453125 "/></g></g><g transform="translate(448.809509, 617.226444)"><g><path d="M 24.828125 0 L 24.828125 -462.4375 L 225.328125 -462.4375 C 278.085938 -462.4375 318.175781 -451.625 345.59375 -430 C 373.007812 -408.382812 386.71875 -380.710938 386.71875 -346.984375 C 386.71875 -320.085938 378.539062 -297.429688 362.1875 -279.015625 C 345.84375 -260.597656 324.222656 -248.804688 297.328125 -243.640625 L 297.328125 -243.015625 C 317.191406 -242.390625 335.035156 -237.265625 350.859375 -227.640625 C 366.691406 -218.023438 379.210938 -204.941406 388.421875 -188.390625 C 397.628906 -171.835938 402.234375 -152.695312 402.234375 -130.96875 C 402.234375 -105.726562 395.921875 -83.226562 383.296875 -63.46875 C 370.671875 -43.707031 352.460938 -28.1875 328.671875 -16.90625 C 304.878906 -5.632812 276.222656 0 242.703125 0 Z M 150.21875 -96.828125 L 218.5 -96.828125 C 234.21875 -96.828125 246.734375 -100.960938 256.046875 -109.234375 C 265.359375 -117.515625 270.015625 -128.585938 270.015625 -142.453125 C 270.015625 -156.316406 265.359375 -167.382812 256.046875 -175.65625 C 246.734375 -183.9375 234.21875 -188.078125 218.5 -188.078125 L 150.21875 -188.078125 Z M 150.21875 -279.328125 L 210.734375 -279.328125 C 225.015625 -279.328125 236.394531 -283.257812 244.875 -291.125 C 253.363281 -298.988281 257.609375 -309.4375 257.609375 -322.46875 C 257.609375 -335.5 253.363281 -345.945312 244.875 -353.8125 C 236.394531 -361.675781 225.015625 -365.609375 210.734375 -365.609375 L 150.21875 -365.609375 Z M 150.21875 -279.328125 "/></g></g><g transform="translate(861.902402, 617.226444)"><g><path d="M 218.5 7.453125 C 154.351562 7.453125 105.207031 -6.460938 71.0625 -34.296875 C 36.925781 -62.128906 19.859375 -102.007812 19.859375 -153.9375 L 141.84375 -153.9375 C 142.875 -135.113281 150.320312 -120.472656 164.1875 -110.015625 C 178.050781 -99.566406 196.671875 -94.34375 220.046875 -94.34375 C 240.328125 -94.34375 256.722656 -98.117188 269.234375 -105.671875 C 281.753906 -113.222656 288.015625 -123.003906 288.015625 -135.015625 C 288.015625 -146.179688 281.910156 -155.28125 269.703125 -162.3125 C 257.492188 -169.351562 238.351562 -175.359375 212.28125 -180.328125 L 166.359375 -189.015625 C 121.660156 -197.492188 87.515625 -213.21875 63.921875 -236.1875 C 40.335938 -259.15625 28.546875 -287.8125 28.546875 -322.15625 C 28.546875 -351.539062 36.507812 -377.300781 52.4375 -399.4375 C 68.375 -421.570312 90.515625 -438.847656 118.859375 -451.265625 C 147.210938 -463.679688 180.113281 -469.890625 217.5625 -469.890625 C 275.289062 -469.890625 320.757812 -456.335938 353.96875 -429.234375 C 387.175781 -402.128906 404.503906 -364.367188 405.953125 -315.953125 L 287.390625 -315.953125 C 285.941406 -332.085938 279.164062 -344.8125 267.0625 -354.125 C 254.957031 -363.4375 239.285156 -368.09375 220.046875 -368.09375 C 201.835938 -368.09375 186.988281 -364.367188 175.5 -356.921875 C 164.019531 -349.472656 158.28125 -339.953125 158.28125 -328.359375 C 158.28125 -317.398438 163.765625 -308.660156 174.734375 -302.140625 C 185.703125 -295.617188 203.1875 -290.1875 227.1875 -285.84375 L 264.4375 -279.015625 C 317.601562 -269.296875 356.082031 -253.726562 379.875 -232.3125 C 403.675781 -210.894531 415.578125 -181.664062 415.578125 -144.625 C 415.578125 -96.207031 398.398438 -58.753906 364.046875 -32.265625 C 329.703125 -5.785156 281.1875 7.453125 218.5 7.453125 Z M 218.5 7.453125 "/></g></g></g></g></g></svg>