<svg width="310" height="76" viewBox="0 0 310 76" fill="none" xmlns="http://www.w3.org/2000/svg">
<g clip-path="url(#clip0_32_5)">
<path d="M15.6136 28.7273L16.9091 21.0909H47.25L45.9545 28.7273H35.4545L30.9545 56H21.6136L26.1136 28.7273H15.6136ZM50.9581 56.4773C48.1626 56.4773 45.8444 55.9432 44.0035 54.875C42.1626 53.7955 40.8672 52.25 40.1172 50.2386C39.3672 48.2159 39.2308 45.7955 39.7081 42.9773C40.1626 40.2727 41.1001 37.9091 42.5206 35.8864C43.9524 33.8636 45.7535 32.2898 47.924 31.1648C50.1058 30.0398 52.549 29.4773 55.2535 29.4773C57.2308 29.4773 58.9637 29.7841 60.4524 30.3977C61.9524 31.0114 63.174 31.9034 64.1172 33.0739C65.0603 34.2443 65.6967 35.6591 66.0262 37.3182C66.3672 38.9659 66.3672 40.8295 66.0262 42.9091L65.6853 45.0909H42.299L43.1172 39.9091H57.8444C57.9581 39.1591 57.8842 38.5 57.6228 37.9318C57.3728 37.3523 56.9694 36.9034 56.4126 36.5852C55.8672 36.2557 55.2081 36.0909 54.4353 36.0909C53.6626 36.0909 52.9353 36.2557 52.2535 36.5852C51.5831 36.9148 51.0092 37.375 50.5319 37.9659C50.066 38.5568 49.7535 39.25 49.5944 40.0455L48.5717 45.5C48.4353 46.3409 48.4865 47.0909 48.7251 47.75C48.9637 48.4091 49.3785 48.9261 49.9694 49.3011C50.5603 49.6761 51.3217 49.8636 52.2535 49.8636C52.8899 49.8636 53.4922 49.7784 54.0603 49.608C54.6399 49.4261 55.1512 49.1648 55.5944 48.8239C56.049 48.4716 56.4126 48.0455 56.6853 47.5455H65.2762C64.6626 49.3636 63.691 50.9432 62.3615 52.2841C61.0433 53.6136 59.4183 54.6477 57.4865 55.3864C55.566 56.1136 53.3899 56.4773 50.9581 56.4773ZM84.7812 29.8182L83.6221 36.6364H66.3721L67.5312 29.8182H84.7812ZM71.8948 23.5455H81.3039L77.3153 47.5795C77.2585 47.9432 77.2698 48.25 77.3494 48.5C77.4289 48.7386 77.588 48.9205 77.8266 49.0455C78.0766 49.1591 78.4062 49.2159 78.8153 49.2159C79.088 49.2159 79.4232 49.1818 79.821 49.1136C80.2187 49.0341 80.5198 48.9773 80.7244 48.9432L80.9971 55.5568C80.5198 55.6932 79.8778 55.8466 79.071 56.017C78.2755 56.1989 77.3494 56.3182 76.2926 56.375C74.088 56.4773 72.2926 56.2443 70.9062 55.6761C69.5312 55.108 68.5766 54.2216 68.0426 53.017C67.5198 51.8011 67.4289 50.2841 67.7698 48.4659L71.8948 23.5455ZM88.6043 56.4091C86.9452 56.4091 85.5191 56.1364 84.3259 55.5909C83.1441 55.0341 82.2805 54.1932 81.735 53.0682C81.2009 51.9318 81.0816 50.5 81.377 48.7727C81.6157 47.3409 82.0645 46.1193 82.7236 45.108C83.3827 44.0966 84.2009 43.267 85.1782 42.6193C86.1555 41.9716 87.252 41.4773 88.468 41.1364C89.6952 40.7841 90.9907 40.5568 92.3543 40.4545C93.8316 40.3409 95.0305 40.1989 95.9509 40.0284C96.8714 39.858 97.5589 39.625 98.0134 39.3295C98.468 39.0341 98.7407 38.6364 98.8316 38.1364V38.0682C98.9339 37.3864 98.752 36.8636 98.2861 36.5C97.8316 36.1364 97.1952 35.9545 96.377 35.9545C95.4907 35.9545 94.7236 36.1477 94.0759 36.5341C93.4395 36.9205 93.002 37.5227 92.7634 38.3409H84.1043C84.468 36.75 85.2123 35.2841 86.3373 33.9432C87.4736 32.5909 88.9793 31.5114 90.8543 30.7045C92.7407 29.8864 94.9907 29.4773 97.6043 29.4773C99.468 29.4773 101.104 29.6989 102.513 30.142C103.923 30.5739 105.087 31.1818 106.008 31.9659C106.94 32.7386 107.593 33.6477 107.968 34.6932C108.354 35.7273 108.445 36.8523 108.241 38.0682L105.241 56H96.4452L97.0589 52.3182H96.8543C96.1725 53.2955 95.4055 54.0852 94.5532 54.6875C93.7123 55.2898 92.7918 55.7273 91.7918 56C90.8032 56.2727 89.7407 56.4091 88.6043 56.4091ZM92.6952 50.4773C93.3998 50.4773 94.093 50.3295 94.7748 50.0341C95.4566 49.7386 96.0418 49.3125 96.5305 48.7557C97.0191 48.1989 97.3316 47.5227 97.468 46.7273L97.8089 44.5455C97.5589 44.6477 97.2805 44.7443 96.9736 44.8352C96.6782 44.9148 96.3657 44.9943 96.0361 45.0739C95.718 45.1534 95.377 45.2273 95.0134 45.2955C94.6611 45.3636 94.2975 45.4318 93.9225 45.5C93.1725 45.6136 92.5418 45.8011 92.0305 46.0625C91.5191 46.3125 91.1214 46.625 90.8373 47C90.5532 47.3636 90.377 47.7727 90.3089 48.2273C90.2066 48.9432 90.3714 49.5 90.8032 49.8977C91.2464 50.2841 91.877 50.4773 92.6952 50.4773ZM116.334 49.7955L118.243 38.6136H119.47L127.311 29.8182H137.879L124.993 43.5227H122.334L116.334 49.7955ZM106.856 56L112.652 21.0909H122.061L116.266 56H106.856ZM123.016 56L118.72 45.6364L126.016 38.9545L133.788 56H123.016ZM144.485 56.4773C141.689 56.4773 139.371 55.9432 137.53 54.875C135.689 53.7955 134.394 52.25 133.644 50.2386C132.894 48.2159 132.758 45.7955 133.235 42.9773C133.689 40.2727 134.627 37.9091 136.047 35.8864C137.479 33.8636 139.28 32.2898 141.451 31.1648C143.633 30.0398 146.076 29.4773 148.78 29.4773C150.758 29.4773 152.491 29.7841 153.979 30.3977C155.479 31.0114 156.701 31.9034 157.644 33.0739C158.587 34.2443 159.224 35.6591 159.553 37.3182C159.894 38.9659 159.894 40.8295 159.553 42.9091L159.212 45.0909H135.826L136.644 39.9091H151.371C151.485 39.1591 151.411 38.5 151.15 37.9318C150.9 37.3523 150.496 36.9034 149.939 36.5852C149.394 36.2557 148.735 36.0909 147.962 36.0909C147.189 36.0909 146.462 36.2557 145.78 36.5852C145.11 36.9148 144.536 37.375 144.059 37.9659C143.593 38.5568 143.28 39.25 143.121 40.0455L142.099 45.5C141.962 46.3409 142.013 47.0909 142.252 47.75C142.491 48.4091 142.905 48.9261 143.496 49.3011C144.087 49.6761 144.849 49.8636 145.78 49.8636C146.417 49.8636 147.019 49.7784 147.587 49.608C148.167 49.4261 148.678 49.1648 149.121 48.8239C149.576 48.4716 149.939 48.0455 150.212 47.5455H158.803C158.189 49.3636 157.218 50.9432 155.888 52.2841C154.57 53.6136 152.945 54.6477 151.013 55.3864C149.093 56.1136 146.917 56.4773 144.485 56.4773ZM170.263 41.2727L167.808 56H158.399L162.763 29.8182H171.694L170.876 34.7955H171.149C171.979 33.125 173.189 31.8239 174.78 30.892C176.382 29.9489 178.149 29.4773 180.081 29.4773C181.933 29.4773 183.473 29.8977 184.7 30.7386C185.927 31.5795 186.797 32.7386 187.308 34.2159C187.819 35.6932 187.91 37.3864 187.581 39.2955L184.785 56H175.376L177.831 41.2727C178.047 39.9773 177.888 38.9602 177.354 38.2216C176.831 37.483 175.967 37.1136 174.763 37.1136C174.001 37.1136 173.302 37.2841 172.666 37.625C172.041 37.9545 171.518 38.4318 171.098 39.0568C170.689 39.6705 170.41 40.4091 170.263 41.2727ZM206.459 29.8182L205.3 36.6364H188.05L189.209 29.8182H206.459ZM193.573 23.5455H202.982L198.993 47.5795C198.937 47.9432 198.948 48.25 199.027 48.5C199.107 48.7386 199.266 48.9205 199.505 49.0455C199.755 49.1591 200.084 49.2159 200.493 49.2159C200.766 49.2159 201.101 49.1818 201.499 49.1136C201.897 49.0341 202.198 48.9773 202.402 48.9432L202.675 55.5568C202.198 55.6932 201.556 55.8466 200.749 56.017C199.954 56.1989 199.027 56.3182 197.971 56.375C195.766 56.4773 193.971 56.2443 192.584 55.6761C191.209 55.108 190.255 54.2216 189.721 53.017C189.198 51.8011 189.107 50.2841 189.448 48.4659L193.573 23.5455Z" fill="white"/>
<path d="M12.5 14.5H37.5L0 0L8 38L12.5 14.5Z" fill="white" stroke="white"/>
<mask id="path-3-outside-1_32_5" maskUnits="userSpaceOnUse" x="207" y="19" width="95" height="39" fill="black">
<rect fill="white" x="207" y="19" width="95" height="39"/>
<path d="M233.523 21.0909H243L239.284 43.4545C238.852 46.1136 237.841 48.4148 236.25 50.358C234.67 52.2898 232.659 53.7841 230.216 54.8409C227.773 55.8864 225.057 56.4091 222.068 56.4091C219.057 56.4091 216.511 55.8864 214.432 54.8409C212.352 53.7841 210.841 52.2898 209.898 50.358C208.966 48.4148 208.716 46.1136 209.148 43.4545L212.864 21.0909H222.341L218.761 42.6364C218.591 43.7159 218.676 44.6761 219.017 45.517C219.358 46.358 219.909 47.0227 220.67 47.5114C221.432 47.9886 222.352 48.2273 223.432 48.2273C224.523 48.2273 225.528 47.9886 226.449 47.5114C227.381 47.0227 228.153 46.358 228.767 45.517C229.381 44.6761 229.773 43.7159 229.943 42.6364L233.523 21.0909ZM238.829 56L244.624 21.0909H259.761C262.42 21.0909 264.596 21.4489 266.289 22.1648C267.994 22.8807 269.198 23.892 269.903 25.1989C270.619 26.5057 270.829 28.0455 270.533 29.8182C270.306 31.0909 269.817 32.2557 269.067 33.3125C268.329 34.358 267.391 35.2443 266.255 35.9716C265.13 36.6875 263.874 37.1818 262.488 37.4545L262.42 37.7955C263.92 37.8409 265.227 38.2159 266.34 38.9205C267.454 39.6136 268.272 40.5795 268.795 41.8182C269.317 43.0455 269.442 44.4773 269.17 46.1136C268.852 48.0227 268.073 49.7216 266.834 51.2102C265.596 52.6989 263.988 53.8693 262.011 54.7216C260.033 55.5739 257.783 56 255.261 56H238.829ZM249.602 48.4318H254.033C255.602 48.4318 256.834 48.1307 257.732 47.5284C258.641 46.9261 259.181 46.0455 259.352 44.8864C259.488 44.0682 259.42 43.375 259.147 42.8068C258.874 42.2386 258.414 41.8068 257.766 41.5114C257.119 41.2159 256.306 41.0682 255.329 41.0682H250.761L249.602 48.4318ZM251.783 35.2045H255.67C256.488 35.2045 257.238 35.0739 257.92 34.8125C258.602 34.5511 259.164 34.1705 259.607 33.6705C260.05 33.1705 260.329 32.5682 260.442 31.8636C260.613 30.7727 260.352 29.9432 259.658 29.375C258.977 28.8068 258.056 28.5227 256.897 28.5227H252.874L251.783 35.2045ZM290.784 32C290.886 30.875 290.614 29.9943 289.966 29.358C289.318 28.7102 288.227 28.3864 286.693 28.3864C285.716 28.3864 284.898 28.5 284.239 28.7273C283.591 28.9545 283.085 29.267 282.722 29.6648C282.369 30.0625 282.148 30.5227 282.057 31.0455C281.954 31.4545 281.96 31.8295 282.074 32.1705C282.199 32.5 282.432 32.8011 282.773 33.0739C283.125 33.3466 283.585 33.5909 284.153 33.8068C284.733 34.0227 285.42 34.2159 286.216 34.3864L288.943 35C290.807 35.4091 292.369 35.9489 293.631 36.6193C294.903 37.2784 295.903 38.0625 296.631 38.9716C297.358 39.8807 297.835 40.8977 298.062 42.0227C298.301 43.1477 298.307 44.375 298.079 45.7045C297.693 48 296.801 49.9432 295.403 51.5341C294.006 53.125 292.182 54.3352 289.932 55.1648C287.682 55.9943 285.079 56.4091 282.125 56.4091C279.102 56.4091 276.534 55.9602 274.42 55.0625C272.318 54.1534 270.795 52.767 269.852 50.9034C268.92 49.0284 268.693 46.6364 269.17 43.7273H278.17C278.034 44.7955 278.148 45.6932 278.511 46.4205C278.875 47.1477 279.46 47.6989 280.267 48.0739C281.074 48.4489 282.079 48.6364 283.284 48.6364C284.307 48.6364 285.182 48.5114 285.909 48.2614C286.636 48.0114 287.21 47.6648 287.631 47.2216C288.051 46.7784 288.307 46.2727 288.398 45.7045C288.489 45.1818 288.398 44.7159 288.125 44.3068C287.852 43.8977 287.358 43.5284 286.642 43.1989C285.926 42.8693 284.943 42.5682 283.693 42.2955L280.352 41.5455C277.386 40.8636 275.148 39.7386 273.636 38.1705C272.125 36.6023 271.591 34.4545 272.034 31.7273C272.398 29.5 273.312 27.5568 274.778 25.8977C276.256 24.2273 278.131 22.9318 280.403 22.0114C282.687 21.0795 285.216 20.6136 287.989 20.6136C290.807 20.6136 293.165 21.0852 295.062 22.0284C296.972 22.9716 298.341 24.2955 299.17 26C300.011 27.7045 300.239 29.7045 299.852 32H290.784Z"/>
</mask>
<path d="M233.523 21.0909V20.0909H232.675L232.536 20.927L233.523 21.0909ZM243 21.0909L243.986 21.2548L244.18 20.0909H243V21.0909ZM239.284 43.4545L238.298 43.2906L238.297 43.2943L239.284 43.4545ZM236.25 50.358L235.476 49.7245L235.476 49.725L236.25 50.358ZM230.216 54.8409L230.609 55.7603L230.613 55.7587L230.216 54.8409ZM214.432 54.8409L213.979 55.7324L213.983 55.7344L214.432 54.8409ZM209.898 50.358L208.996 50.7904L208.999 50.7967L209.898 50.358ZM209.148 43.4545L208.161 43.2906L208.161 43.2943L209.148 43.4545ZM212.864 21.0909V20.0909H212.016L211.877 20.927L212.864 21.0909ZM222.341 21.0909L223.327 21.2548L223.521 20.0909H222.341V21.0909ZM218.761 42.6364L217.775 42.4725L217.774 42.4804L218.761 42.6364ZM220.67 47.5114L220.13 48.353L220.139 48.3587L220.67 47.5114ZM226.449 47.5114L226.909 48.3991L226.913 48.397L226.449 47.5114ZM229.943 42.6364L228.957 42.4725L228.955 42.4804L229.943 42.6364ZM233.523 21.0909V22.0909H243V21.0909V20.0909H233.523V21.0909ZM243 21.0909L242.014 20.927L238.298 43.2906L239.284 43.4545L240.271 43.6185L243.986 21.2548L243 21.0909ZM239.284 43.4545L238.297 43.2943C237.891 45.7927 236.948 47.9274 235.476 49.7245L236.25 50.358L237.024 50.9914C238.734 48.9022 239.813 46.4346 240.271 43.6148L239.284 43.4545ZM236.25 50.358L235.476 49.725C234.004 51.5249 232.125 52.9254 229.819 53.9231L230.216 54.8409L230.613 55.7587C233.193 54.6428 235.337 53.0547 237.024 50.9909L236.25 50.358ZM230.216 54.8409L229.823 53.9215C227.518 54.9075 224.938 55.4091 222.068 55.4091V56.4091V57.4091C225.175 57.4091 228.027 56.8652 230.609 55.7603L230.216 54.8409ZM222.068 56.4091V55.4091C219.169 55.4091 216.786 54.9054 214.881 53.9475L214.432 54.8409L213.983 55.7344C216.236 56.8674 218.945 57.4091 222.068 57.4091V56.4091ZM214.432 54.8409L214.885 53.9494C212.982 52.9822 211.636 51.6388 210.796 49.9192L209.898 50.358L208.999 50.7967C210.046 52.9408 211.723 54.586 213.979 55.7324L214.432 54.8409ZM209.898 50.358L210.799 49.9256C209.976 48.2081 209.727 46.123 210.135 43.6148L209.148 43.4545L208.161 43.2943C207.704 46.1042 207.956 48.6215 208.996 50.7903L209.898 50.358ZM209.148 43.4545L210.134 43.6185L213.85 21.2548L212.864 21.0909L211.877 20.927L208.161 43.2906L209.148 43.4545ZM212.864 21.0909V22.0909H222.341V21.0909V20.0909H212.864V21.0909ZM222.341 21.0909L221.354 20.927L217.775 42.4725L218.761 42.6364L219.748 42.8003L223.327 21.2548L222.341 21.0909ZM218.761 42.6364L217.774 42.4804C217.581 43.7026 217.668 44.852 218.09 45.8927L219.017 45.517L219.944 45.1413C219.684 44.5003 219.601 43.7292 219.749 42.7923L218.761 42.6364ZM219.017 45.517L218.09 45.8927C218.509 46.9246 219.194 47.7523 220.13 48.353L220.67 47.5114L221.211 46.6698C220.624 46.2931 220.207 45.7914 219.944 45.1413L219.017 45.517ZM220.67 47.5114L220.139 48.3587C221.089 48.9542 222.203 49.2273 223.432 49.2273V48.2273V47.2273C222.502 47.2273 221.774 47.0231 221.202 46.6641L220.67 47.5114ZM223.432 48.2273V49.2273C224.674 49.2273 225.839 48.954 226.909 48.3991L226.449 47.5114L225.989 46.6236C225.218 47.0233 224.371 47.2273 223.432 47.2273V48.2273ZM226.449 47.5114L226.913 48.397C227.979 47.838 228.87 47.0725 229.575 46.1065L228.767 45.517L227.959 44.9276C227.437 45.6434 226.782 46.2074 225.984 46.6257L226.449 47.5114ZM228.767 45.517L229.575 46.1065C230.287 45.131 230.737 44.0205 230.931 42.7923L229.943 42.6364L228.955 42.4804C228.808 43.4113 228.475 44.2213 227.959 44.9276L228.767 45.517ZM229.943 42.6364L230.93 42.8003L234.509 21.2548L233.523 21.0909L232.536 20.927L228.957 42.4725L229.943 42.6364ZM238.829 56L237.842 55.8362L237.649 57H238.829V56ZM244.624 21.0909V20.0909H243.777L243.638 20.9271L244.624 21.0909ZM266.289 22.1648L265.9 23.0858L265.902 23.0868L266.289 22.1648ZM269.903 25.1989L269.022 25.6734L269.026 25.6793L269.903 25.1989ZM270.533 29.8182L271.518 29.994L271.52 29.9826L270.533 29.8182ZM269.067 33.3125L268.252 32.7338L268.251 32.7355L269.067 33.3125ZM266.255 35.9716L266.792 36.8153L266.794 36.8139L266.255 35.9716ZM262.488 37.4545L262.295 36.4734L261.639 36.6025L261.507 37.2584L262.488 37.4545ZM262.42 37.7955L261.439 37.5993L261.207 38.7592L262.389 38.795L262.42 37.7955ZM266.34 38.9205L265.806 39.7656L265.812 39.7694L266.34 38.9205ZM268.795 41.8182L267.873 42.207L267.875 42.21L268.795 41.8182ZM269.17 46.1136L268.183 45.9492V45.9492L269.17 46.1136ZM262.011 54.7216L261.615 53.8033H261.615L262.011 54.7216ZM249.602 48.4318L248.614 48.2763L248.432 49.4318H249.602V48.4318ZM257.732 47.5284L257.18 46.6947L257.175 46.698L257.732 47.5284ZM259.352 44.8864L258.365 44.722L258.364 44.7314L258.362 44.7409L259.352 44.8864ZM259.147 42.8068L260.049 42.3741V42.3741L259.147 42.8068ZM257.766 41.5114L257.351 42.4212V42.4212L257.766 41.5114ZM250.761 41.0682V40.0682H249.906L249.773 40.9127L250.761 41.0682ZM251.783 35.2045L250.796 35.0434L250.607 36.2045H251.783V35.2045ZM257.92 34.8125L258.278 35.7462H258.278L257.92 34.8125ZM260.442 31.8636L261.43 32.0229L261.43 32.018L260.442 31.8636ZM259.658 29.375L259.018 30.1432L259.024 30.1484L259.658 29.375ZM252.874 28.5227V27.5227H252.024L251.887 28.3616L252.874 28.5227ZM238.829 56L239.815 56.1638L245.611 21.2547L244.624 21.0909L243.638 20.9271L237.842 55.8362L238.829 56ZM244.624 21.0909V22.0909H259.761V21.0909V20.0909H244.624V21.0909ZM259.761 21.0909V22.0909C262.341 22.0909 264.372 22.4398 265.9 23.0858L266.289 22.1648L266.678 21.2437C264.82 20.4579 262.499 20.0909 259.761 20.0909V21.0909ZM266.289 22.1648L265.902 23.0868C267.449 23.7365 268.451 24.613 269.022 25.6734L269.903 25.1989L270.783 24.7243C269.945 23.1711 268.538 22.0249 266.676 21.2428L266.289 22.1648ZM269.903 25.1989L269.026 25.6793C269.613 26.7514 269.813 28.0551 269.547 29.6538L270.533 29.8182L271.52 29.9826C271.844 28.0358 271.624 26.26 270.78 24.7184L269.903 25.1989ZM270.533 29.8182L269.549 29.6424C269.348 30.7696 268.917 31.7969 268.252 32.7338L269.067 33.3125L269.883 33.8912C270.718 32.7145 271.265 31.4122 271.518 29.994L270.533 29.8182ZM269.067 33.3125L268.251 32.7355C267.591 33.6698 266.749 34.4679 265.716 35.1293L266.255 35.9716L266.794 36.8139C268.033 36.0208 269.067 35.0461 269.884 33.8895L269.067 33.3125ZM266.255 35.9716L265.718 35.1279C264.704 35.7731 263.566 36.2232 262.295 36.4734L262.488 37.4545L262.681 38.4357C264.182 38.1404 265.556 37.6019 266.792 36.8153L266.255 35.9716ZM262.488 37.4545L261.507 37.2584L261.439 37.5993L262.42 37.7955L263.4 37.9916L263.468 37.6507L262.488 37.4545ZM262.42 37.7955L262.389 38.795C263.736 38.8358 264.863 39.1694 265.806 39.7655L266.34 38.9205L266.875 38.0754C265.59 37.2624 264.104 36.846 262.45 36.7959L262.42 37.7955ZM266.34 38.9205L265.812 39.7694C266.745 40.3506 267.429 41.1536 267.873 42.207L268.795 41.8182L269.716 41.4294C269.115 40.0055 268.162 38.8767 266.869 38.0715L266.34 38.9205ZM268.795 41.8182L267.875 42.21C268.306 43.2237 268.432 44.4551 268.183 45.9492L269.17 46.1136L270.156 46.278C270.453 44.4995 270.328 42.8672 269.715 41.4263L268.795 41.8182ZM269.17 46.1136L268.183 45.9492C267.894 47.6833 267.191 49.2182 266.066 50.5706L266.834 51.2102L267.603 51.8498C268.955 50.225 269.809 48.3621 270.156 46.278L269.17 46.1136ZM266.834 51.2102L266.066 50.5706C264.939 51.9253 263.464 53.0062 261.615 53.8033L262.011 54.7216L262.406 55.6399C264.512 54.7324 266.253 53.4724 267.603 51.8498L266.834 51.2102ZM262.011 54.7216L261.615 53.8033C259.782 54.5932 257.67 55 255.261 55V56V57C257.896 57 260.285 56.5545 262.406 55.6399L262.011 54.7216ZM255.261 56V55H238.829V56V57H255.261V56ZM249.602 48.4318V49.4318H254.033V48.4318V47.4318H249.602V48.4318ZM254.033 48.4318V49.4318C255.715 49.4318 257.168 49.1111 258.289 48.3588L257.732 47.5284L257.175 46.698C256.501 47.1503 255.488 47.4318 254.033 47.4318V48.4318ZM257.732 47.5284L258.285 48.3621C259.45 47.5902 260.133 46.4485 260.341 45.0319L259.352 44.8864L258.362 44.7409C258.23 45.6424 257.833 46.262 257.18 46.6948L257.732 47.5284ZM259.352 44.8864L260.338 45.0508C260.498 44.0931 260.435 43.1785 260.049 42.3741L259.147 42.8068L258.245 43.2395C258.405 43.5715 258.478 44.0433 258.365 44.722L259.352 44.8864ZM259.147 42.8068L260.049 42.3741C259.661 41.5675 259.013 40.9808 258.181 40.6015L257.766 41.5114L257.351 42.4212C257.815 42.6328 258.087 42.9098 258.245 43.2395L259.147 42.8068ZM257.766 41.5114L258.181 40.6015C257.364 40.2289 256.399 40.0682 255.329 40.0682V41.0682V42.0682C256.213 42.0682 256.873 42.203 257.351 42.4212L257.766 41.5114ZM255.329 41.0682V40.0682H250.761V41.0682V42.0682H255.329V41.0682ZM250.761 41.0682L249.773 40.9127L248.614 48.2763L249.602 48.4318L250.589 48.5873L251.748 41.2237L250.761 41.0682ZM251.783 35.2045V36.2045H255.67V35.2045V34.2045H251.783V35.2045ZM255.67 35.2045V36.2045C256.596 36.2045 257.469 36.0564 258.278 35.7462L257.92 34.8125L257.562 33.8788C257.007 34.0914 256.38 34.2045 255.67 34.2045V35.2045ZM257.92 34.8125L258.278 35.7462C259.095 35.4328 259.796 34.9648 260.356 34.3338L259.607 33.6705L258.859 33.0071C258.532 33.3761 258.108 33.6694 257.562 33.8788L257.92 34.8125ZM259.607 33.6705L260.356 34.3338C260.933 33.682 261.288 32.9014 261.43 32.0229L260.442 31.8636L259.455 31.7044C259.37 32.235 259.168 32.6589 258.859 33.0071L259.607 33.6705ZM260.442 31.8636L261.43 32.018C261.641 30.6717 261.326 29.4492 260.292 28.6016L259.658 29.375L259.024 30.1484C259.377 30.4371 259.585 30.8738 259.454 31.7093L260.442 31.8636ZM259.658 29.375L260.299 28.6068C259.388 27.8482 258.217 27.5227 256.897 27.5227V28.5227V29.5227C257.895 29.5227 258.565 29.7655 259.018 30.1432L259.658 29.375ZM256.897 28.5227V27.5227H252.874V28.5227V29.5227H256.897V28.5227ZM252.874 28.5227L251.887 28.3616L250.796 35.0434L251.783 35.2045L252.77 35.3657L253.861 28.6839L252.874 28.5227ZM290.784 32L289.788 31.9095L289.689 33H290.784V32ZM289.966 29.358L289.259 30.0651L289.265 30.0713L289.966 29.358ZM284.239 28.7273L283.913 27.7819L283.907 27.7837L284.239 28.7273ZM282.722 29.6648L281.984 28.99L281.978 28.9958L281.973 29.0017L282.722 29.6648ZM282.057 31.0455L283.027 31.288L283.036 31.2527L283.042 31.2168L282.057 31.0455ZM282.074 32.1705L281.125 32.4867L281.132 32.506L281.139 32.5251L282.074 32.1705ZM282.773 33.0739L282.148 33.8547L282.154 33.8597L282.16 33.8646L282.773 33.0739ZM284.153 33.8068L283.798 34.7416L283.804 34.7439L284.153 33.8068ZM286.216 34.3864L286.435 33.4107L286.425 33.4086L286.216 34.3864ZM288.943 35L288.724 35.9756L288.729 35.9767L288.943 35ZM293.631 36.6193L293.161 37.5024L293.171 37.5073L293.631 36.6193ZM296.631 38.9716L295.85 39.5963V39.5963L296.631 38.9716ZM298.062 42.0227L297.082 42.2208L297.084 42.2302L298.062 42.0227ZM298.079 45.7045L297.094 45.536L297.093 45.5386L298.079 45.7045ZM295.403 51.5341L294.652 50.8741H294.652L295.403 51.5341ZM289.932 55.1648L289.586 54.2265V54.2265L289.932 55.1648ZM274.42 55.0625L274.023 55.9804L274.029 55.9829L274.42 55.0625ZM269.852 50.9034L268.957 51.3485L268.96 51.355L269.852 50.9034ZM269.17 43.7273V42.7273H268.321L268.184 43.5654L269.17 43.7273ZM278.17 43.7273L279.162 43.8539L279.306 42.7273H278.17V43.7273ZM278.511 46.4205L279.406 45.9732V45.9732L278.511 46.4205ZM280.267 48.0739L279.845 48.9807V48.9807L280.267 48.0739ZM287.631 47.2216L286.905 46.5333V46.5333L287.631 47.2216ZM288.398 45.7045L287.412 45.5332L287.41 45.5466L288.398 45.7045ZM286.642 43.1989L286.224 44.1072V44.1072L286.642 43.1989ZM283.693 42.2955L283.474 43.2712L283.48 43.2725L283.693 42.2955ZM280.352 41.5455L280.128 42.52L280.133 42.5212L280.352 41.5455ZM272.034 31.7273L271.047 31.5661L271.047 31.5669L272.034 31.7273ZM274.778 25.8977L274.029 25.2353L274.029 25.2356L274.778 25.8977ZM280.403 22.0114L280.779 22.9382L280.781 22.9373L280.403 22.0114ZM295.062 22.0284L294.617 22.9239L294.62 22.925L295.062 22.0284ZM299.17 26L298.271 26.4376L298.274 26.4424L299.17 26ZM299.852 32V33H300.698L300.838 32.166L299.852 32ZM290.784 32L291.78 32.0905C291.902 30.7466 291.58 29.5415 290.667 28.6446L289.966 29.358L289.265 30.0713C289.648 30.4472 289.871 31.0034 289.788 31.9095L290.784 32ZM289.966 29.358L290.673 28.6508C289.745 27.7229 288.324 27.3864 286.693 27.3864V28.3864V29.3864C288.131 29.3864 288.891 29.6976 289.259 30.0651L289.966 29.358ZM286.693 28.3864V27.3864C285.646 27.3864 284.709 27.5071 283.913 27.7819L284.239 28.7273L284.565 29.6726C285.086 29.4929 285.786 29.3864 286.693 29.3864V28.3864ZM284.239 28.7273L283.907 27.7837C283.146 28.051 282.485 28.4416 281.984 28.99L282.722 29.6648L283.46 30.3395C283.685 30.0925 284.036 29.8581 284.57 29.6709L284.239 28.7273ZM282.722 29.6648L281.973 29.0017C281.498 29.5381 281.194 30.1685 281.072 30.8741L282.057 31.0455L283.042 31.2168C283.101 30.877 283.241 30.5869 283.47 30.3278L282.722 29.6648ZM282.057 31.0455L281.087 30.8029C280.946 31.364 280.942 31.936 281.125 32.4867L282.074 32.1705L283.022 31.8542C282.979 31.7231 282.963 31.5451 283.027 31.288L282.057 31.0455ZM282.074 32.1705L281.139 32.5251C281.341 33.0576 281.7 33.4967 282.148 33.8547L282.773 33.0739L283.397 32.293C283.163 32.1055 283.057 31.9424 283.009 31.8158L282.074 32.1705ZM282.773 33.0739L282.16 33.8646C282.613 34.2152 283.169 34.5025 283.798 34.7416L284.153 33.8068L284.509 32.872C284.002 32.6794 283.636 32.478 283.385 32.2831L282.773 33.0739ZM284.153 33.8068L283.804 34.7439C284.441 34.9811 285.177 35.1865 286.006 35.3642L286.216 34.3864L286.425 33.4086C285.664 33.2453 285.025 33.0644 284.502 32.8697L284.153 33.8068ZM286.216 34.3864L285.996 35.362L288.724 35.9756L288.943 35L289.163 34.0244L286.435 33.4108L286.216 34.3864ZM288.943 35L288.729 35.9767C290.531 36.3724 292.002 36.8861 293.161 37.5023L293.631 36.6193L294.1 35.7363C292.737 35.0116 291.082 34.4458 289.158 34.0233L288.943 35ZM293.631 36.6193L293.171 37.5073C294.347 38.1165 295.228 38.8186 295.85 39.5963L296.631 38.9716L297.411 38.3469C296.579 37.3064 295.459 36.4403 294.09 35.7313L293.631 36.6193ZM296.631 38.9716L295.85 39.5963C296.479 40.3829 296.887 41.2541 297.082 42.2207L298.062 42.0227L299.043 41.8247C298.783 40.5413 298.237 39.3785 297.411 38.3469L296.631 38.9716ZM298.062 42.0227L297.084 42.2302C297.292 43.2121 297.303 44.31 297.094 45.536L298.079 45.7045L299.065 45.873C299.31 44.44 299.31 43.0834 299.041 41.8152L298.062 42.0227ZM298.079 45.7045L297.093 45.5386C296.735 47.6695 295.915 49.4365 294.652 50.8741L295.403 51.5341L296.155 52.1941C297.687 50.4499 298.652 48.3305 299.066 45.8705L298.079 45.7045ZM295.403 51.5341L294.652 50.8741C293.378 52.3242 291.701 53.4468 289.586 54.2265L289.932 55.1648L290.278 56.103C292.663 55.2236 294.633 53.9258 296.155 52.1941L295.403 51.5341ZM289.932 55.1648L289.586 54.2265C287.469 55.007 284.988 55.4091 282.125 55.4091V56.4091V57.4091C285.171 57.4091 287.895 56.9817 290.278 56.103L289.932 55.1648ZM282.125 56.4091V55.4091C279.196 55.4091 276.769 54.9735 274.811 54.1421L274.42 55.0625L274.029 55.9829C276.299 56.9469 279.008 57.4091 282.125 57.4091V56.4091ZM274.42 55.0625L274.817 54.1446C272.907 53.3187 271.572 52.0864 270.744 50.4518L269.852 50.9034L268.96 51.355C270.019 53.4477 271.729 54.9881 274.023 55.9804L274.42 55.0625ZM269.852 50.9034L270.748 50.4584C269.94 48.8337 269.7 46.6732 270.157 43.8892L269.17 43.7273L268.184 43.5654C267.686 46.5996 267.9 49.2231 268.957 51.3484L269.852 50.9034ZM269.17 43.7273V44.7273H278.17V43.7273V42.7273H269.17V43.7273ZM278.17 43.7273L277.178 43.6006C277.025 44.8028 277.14 45.9138 277.617 46.8677L278.511 46.4205L279.406 45.9732C279.155 45.4725 279.043 44.7881 279.162 43.8539L278.17 43.7273ZM278.511 46.4205L277.617 46.8677C278.091 47.8166 278.854 48.5199 279.845 48.9807L280.267 48.0739L280.688 47.167C280.066 46.8778 279.659 46.4788 279.406 45.9732L278.511 46.4205ZM280.267 48.0739L279.845 48.9807C280.822 49.4347 281.983 49.6364 283.284 49.6364V48.6364V47.6364C282.176 47.6364 281.325 47.463 280.688 47.167L280.267 48.0739ZM283.284 48.6364V49.6364C284.383 49.6364 285.374 49.5027 286.234 49.2071L285.909 48.2614L285.584 47.3157C284.989 47.5201 284.23 47.6364 283.284 47.6364V48.6364ZM285.909 48.2614L286.234 49.2071C287.075 48.918 287.8 48.4962 288.356 47.9099L287.631 47.2216L286.905 46.5333C286.621 46.8334 286.198 47.1048 285.584 47.3157L285.909 48.2614ZM287.631 47.2216L288.356 47.9099C288.906 47.3299 289.26 46.6424 289.385 45.8625L288.398 45.7045L287.41 45.5466C287.353 45.903 287.196 46.2269 286.905 46.5333L287.631 47.2216ZM288.398 45.7045L289.383 45.8759C289.514 45.1224 289.384 44.3924 288.957 43.7521L288.125 44.3068L287.293 44.8615C287.411 45.0394 287.463 45.2413 287.412 45.5332L288.398 45.7045ZM288.125 44.3068L288.957 43.7521C288.537 43.1225 287.852 42.6551 287.06 42.2905L286.642 43.1989L286.224 44.1072C286.864 44.4017 287.167 44.673 287.293 44.8615L288.125 44.3068ZM286.642 43.1989L287.06 42.2905C286.251 41.918 285.189 41.5983 283.906 41.3184L283.693 42.2955L283.48 43.2725C284.697 43.5381 285.601 43.8207 286.224 44.1072L286.642 43.1989ZM283.693 42.2955L283.912 41.3197L280.571 40.5697L280.352 41.5455L280.133 42.5212L283.474 43.2712L283.693 42.2955ZM280.352 41.5455L280.576 40.5709C277.727 39.9159 275.69 38.8598 274.356 37.4765L273.636 38.1705L272.916 38.8644C274.606 40.6175 277.045 41.8114 280.128 42.52L280.352 41.5455ZM273.636 38.1705L274.356 37.4765C273.121 36.1949 272.613 34.3962 273.021 31.8877L272.034 31.7273L271.047 31.5669C270.568 34.5129 271.129 37.0096 272.916 38.8644L273.636 38.1705ZM272.034 31.7273L273.021 31.8884C273.355 29.8434 274.189 28.0748 275.528 26.5599L274.778 25.8977L274.029 25.2356C272.436 27.0388 271.44 29.1566 271.047 31.5661L272.034 31.7273ZM274.778 25.8977L275.527 26.5602C276.892 25.0168 278.635 23.8065 280.779 22.9382L280.403 22.0114L280.028 21.0845C277.626 22.0571 275.619 23.4378 274.029 25.2353L274.778 25.8977ZM280.403 22.0114L280.781 22.9373C282.931 22.0601 285.329 21.6136 287.989 21.6136V20.6136V19.6136C285.102 19.6136 282.444 20.099 280.026 21.0854L280.403 22.0114ZM287.989 20.6136V21.6136C290.701 21.6136 292.896 22.0683 294.617 22.9239L295.062 22.0284L295.508 21.1329C293.434 20.1022 290.912 19.6136 287.989 19.6136V20.6136ZM295.062 22.0284L294.62 22.925C296.356 23.7827 297.551 24.9568 298.271 26.4376L299.17 26L300.07 25.5624C299.131 23.6341 297.587 22.1605 295.505 21.1319L295.062 22.0284ZM299.17 26L298.274 26.4424C299.002 27.9197 299.226 29.6984 298.866 31.834L299.852 32L300.838 32.166C301.252 29.7107 301.02 27.4894 300.067 25.5576L299.17 26ZM299.852 32V31H290.784V32V33H299.852V32Z" fill="white" mask="url(#path-3-outside-1_32_5)"/>
</g>
<defs>
<clipPath id="clip0_32_5">
<rect width="310" height="76" fill="white"/>
</clipPath>
</defs>
</svg>
